<svg width="40" height="40" viewBox="0 0 40 40" fill="none" xmlns="http://www.w3.org/2000/svg">
    <!-- Apple outline - proper rounded apple shape with Bezier curves -->
    <path d="M20 4C16 4 13 6.5 13 10C13 13.5 14.5 16.5 16.5 18C18.5 19.5 19.2 20 20 20C20.8 20 21.5 19.5 23.5 18C25.5 16.5 27 13.5 27 10C27 6.5 24 4 20 4ZM20 20C21 20.5 22 21.5 23 22.5C24 23.5 24.5 25 24.5 26.5C24.5 28 24 29.5 23 30.5C22 31.5 20.5 32 19 32C17.5 32 16 31.5 15 30.5C14 29.5 13.5 28 13.5 26.5C13.5 25 14 23.5 15 22.5C16 21.5 17 20.5 18 20C18.5 20 19 20 19.5 20C19.7 20 19.8 20 20 20ZM19 32C19.5 32.5 20 33 20.5 33.5C21 34 21.5 34.5 22 35C22.5 35.5 23 36 23.5 36.5C23.5 37 23 37.5 22.5 38C22 38.5 21.5 39 21 39.5C20.5 40 20 40.5 20 40.5C20 40.5 19.5 40 19 39.5C18.5 39 18 38.5 17.5 38C17 37.5 16.5 37 16.5 36.5C16.5 36 17 35.5 17.5 35C18 34.5 18.5 34 19 33.5C19.5 33 19.2 32.2 19 32Z" stroke="#E63946" stroke-width="2.5" fill="none"/>
    <!-- Stem -->
    <line x1="20" y1="4" x2="20" y2="2" stroke="#2B2D42" stroke-width="1.5"/>
    <!-- Leaf (on right side of stem) -->
    <path d="M20 2C21 2 21.5 3 21.5 4C21.5 5 21 6 20 6C19 6 18.5 5 18.5 4C18.5 3 19 2 20 2Z" fill="#A5D6A7"/>
    <!-- Wi-Fi symbol (above book) -->
    <path d="M20 9C21.5 9 22.5 9.5 23.5 10.5" stroke="#2B2D42" stroke-width="2" fill="none"/>
    <path d="M20 7C22.5 7 24.5 8 26 9.5" stroke="#2B2D42" stroke-width="2" fill="none"/>
    <path d="M20 5C24 5 27 6.5 29.5 8.5" stroke="#2B2D42" stroke-width="2" fill="none"/>
    <circle cx="20" cy="11" r="1.5" fill="#2B2D42"/>
    <!-- Open book (centered) -->
    <rect x="14" y="14" width="12" height="9" rx="1" fill="none" stroke="#2B2D42" stroke-width="1.5"/>
    <rect x="14" y="14" width="6" height="9" rx="1" fill="#2B2D42"/>
    <line x1="16" y1="16" x2="18" y2="16" stroke="#F5F5F5" stroke-width="0.8"/>
    <line x1="16" y1="18" x2="18" y2="18" stroke="#F5F5F5" stroke-width="0.8"/>
    <line x1="16" y1="20" x2="18" y2="20" stroke="#F5F5F5" stroke-width="0.8"/>
    <!-- Location pin (below book, dark gray with red dot, extends outside) -->
    <path d="M20 26L18 31L20 33L22 31L20 26Z" fill="#2B2D42"/>
    <circle cx="20" cy="26" r="2.5" fill="#2B2D42"/>
    <circle cx="20" cy="26" r="1.5" fill="#E63946"/>
</svg>

